<svg width="24" height="29" viewBox="0 0 24 29" fill="none" xmlns="http://www.w3.org/2000/svg">
<path d="M24 11.4415V27.9931H19.2995V24.3388C17.697 26.8108 14.5989 28.208 10.3257 28.208C4.12958 28.208 0.283691 24.8762 0.283691 20.1472C0.283691 15.7406 3.06127 12.1938 11.1804 12.1938H18.979V11.2265C18.979 7.0349 16.5219 4.67038 11.7145 4.67038C8.50961 4.67038 5.19788 5.85264 3.06127 7.57229L1.0315 3.81056C3.80908 1.55353 7.86863 0.263794 12.2487 0.263794C19.8336 0.371272 24 4.02552 24 11.4415ZM19.0858 19.6098V15.7406H11.5009C6.58667 15.7406 5.19788 17.6752 5.19788 19.9322C5.19788 22.6192 7.44131 24.3388 11.1804 24.3388C14.9194 24.4463 17.9107 22.8341 19.0858 19.6098Z" fill="white"/>
</svg>
