<svg width="24" height="29" viewBox="0 0 24 29" fill="none" xmlns="http://www.w3.org/2000/svg">
<path d="M0.905396 25.0913L2.93517 21.2221C5.28543 22.8343 8.91766 24.0166 12.4431 24.0166C17.0367 24.0166 18.8529 22.6193 18.8529 20.2548C18.8529 14.1286 1.6532 19.395 1.6532 8.53974C1.6532 3.59576 6.03325 0.371429 12.9772 0.371429C16.5026 0.371429 20.5621 1.33873 22.9124 2.84342L20.7758 6.71262C18.3187 5.10045 15.648 4.56307 12.9772 4.56307C8.704 4.56307 6.5674 6.17523 6.5674 8.32479C6.5674 14.7735 23.767 9.50704 23.767 20.1474C23.767 25.0913 19.2802 28.2082 12.0157 28.2082C7.6357 28.3157 3.14883 26.9185 0.905396 25.0913Z" fill="white"/>
</svg>
