<svg width="29" height="35" viewBox="0 0 29 35" fill="none" xmlns="http://www.w3.org/2000/svg">
<path d="M29.0001 14.2487V33.9207H23.4135V29.5775C21.5089 32.5155 17.8268 34.1762 12.748 34.1762C5.38368 34.1762 0.812744 30.2162 0.812744 24.5957C0.812744 19.3583 4.11397 15.1429 13.7637 15.1429H23.0325V13.9932C23.0325 9.01137 20.1122 6.20109 14.3986 6.20109C10.5895 6.20109 6.65338 7.60623 4.11397 9.65007L1.70153 5.17917C5.00276 2.49663 9.82763 0.963745 15.0334 0.963745C24.0483 1.09149 29.0001 5.43465 29.0001 14.2487ZM23.1595 23.957V19.3583H14.1446C8.30399 19.3583 6.65338 21.6576 6.65338 24.3402C6.65338 27.5337 9.31975 29.5775 13.7637 29.5775C18.2077 29.7053 21.7628 27.7892 23.1595 23.957Z" fill="#FF6060"/>
</svg>
