<svg width="29" height="34" viewBox="0 0 29 34" fill="none" xmlns="http://www.w3.org/2000/svg">
<path d="M0.895752 29.4717L3.30819 24.8731C6.10153 26.7892 10.4185 28.1943 14.6085 28.1943C20.0683 28.1943 22.2268 26.5337 22.2268 23.7234C22.2268 16.4422 1.78454 22.7015 1.78454 9.79974C1.78454 3.92369 6.99033 0.0914917 15.2434 0.0914917C19.4334 0.0914917 24.2583 1.24115 27.0516 3.02951L24.5122 7.62815C21.5919 5.71205 18.4177 5.07335 15.2434 5.07335C10.1646 5.07335 7.62518 6.98945 7.62518 9.54426C7.62518 17.2087 28.0674 10.9494 28.0674 23.5957C28.0674 29.4717 22.7346 33.1762 14.1007 33.1762C8.89488 33.3039 3.56213 31.6433 0.895752 29.4717Z" fill="#FF6060"/>
</svg>
